<svg width="230" height="19" viewBox="0 0 230 19" fill="none" xmlns="http://www.w3.org/2000/svg">
<path d="M22.776 1.08H26.328L20.304 18H17.304L13.392 6.792L9.432 18H6.432L0.432 1.08H4.224L8.088 12.768L12.192 1.08H14.808L18.768 12.888L22.776 1.08ZM35.5496 5.928C36.9576 5.928 38.0056 6.344 38.6936 7.176C39.3816 7.992 39.7256 9.232 39.7256 10.896V18H36.1016V11.064C36.1016 10.264 35.9496 9.68 35.6456 9.312C35.3576 8.944 34.9016 8.76 34.2776 8.76C33.5256 8.76 32.9176 9 32.4536 9.48C32.0056 9.96 31.7816 10.6 31.7816 11.4V18H28.1576V1.08H31.7816V7.776C32.1976 7.168 32.7256 6.712 33.3656 6.408C34.0216 6.088 34.7496 5.928 35.5496 5.928ZM53.0391 12.792H45.3591C45.4711 13.736 45.7751 14.424 46.2711 14.856C46.7831 15.272 47.5031 15.48 48.4311 15.48C49.0391 15.48 49.6391 15.384 50.2311 15.192C50.8391 14.984 51.3911 14.696 51.8871 14.328L52.8471 16.752C52.2711 17.2 51.5671 17.552 50.7351 17.808C49.9191 18.064 49.0951 18.192 48.2631 18.192C46.2791 18.192 44.7111 17.648 43.5591 16.56C42.4231 15.456 41.8551 13.96 41.8551 12.072C41.8551 10.872 42.1031 9.808 42.5991 8.88C43.0951 7.952 43.7831 7.232 44.6631 6.72C45.5431 6.192 46.5431 5.928 47.6631 5.928C49.3111 5.928 50.6151 6.464 51.5751 7.536C52.5511 8.608 53.0391 10.064 53.0391 11.904V12.792ZM47.7591 8.424C47.0711 8.424 46.5191 8.648 46.1031 9.096C45.7031 9.528 45.4551 10.16 45.3591 10.992H49.9911C49.9431 10.144 49.7271 9.504 49.3431 9.072C48.9751 8.64 48.4471 8.424 47.7591 8.424ZM63.6519 8.904L61.6119 9.12C60.6039 9.216 59.8919 9.504 59.4759 9.984C59.0599 10.448 58.8519 11.072 58.8519 11.856V18H55.2279V6.216H58.7079V8.208C59.2999 6.848 60.5239 6.104 62.3799 5.976L63.4359 5.904L63.6519 8.904ZM75.2344 12.792H67.5544C67.6664 13.736 67.9704 14.424 68.4664 14.856C68.9784 15.272 69.6984 15.48 70.6264 15.48C71.2344 15.48 71.8344 15.384 72.4264 15.192C73.0344 14.984 73.5864 14.696 74.0824 14.328L75.0424 16.752C74.4664 17.2 73.7624 17.552 72.9304 17.808C72.1144 18.064 71.2904 18.192 70.4584 18.192C68.4744 18.192 66.9064 17.648 65.7544 16.56C64.6184 15.456 64.0504 13.96 64.0504 12.072C64.0504 10.872 64.2984 9.808 64.7944 8.88C65.2904 7.952 65.9784 7.232 66.8584 6.72C67.7384 6.192 68.7384 5.928 69.8584 5.928C71.5064 5.928 72.8104 6.464 73.7704 7.536C74.7464 8.608 75.2344 10.064 75.2344 11.904V12.792ZM69.9544 8.424C69.2664 8.424 68.7144 8.648 68.2984 9.096C67.8984 9.528 67.6504 10.16 67.5544 10.992H72.1864C72.1384 10.144 71.9224 9.504 71.5384 9.072C71.1704 8.64 70.6424 8.424 69.9544 8.424ZM84.1264 18V6.216H87.7504V18H84.1264ZM84.0064 0.551999H87.8944V3.936H84.0064V0.551999ZM97.9168 5.928C99.3248 5.928 100.373 6.344 101.061 7.176C101.749 7.992 102.093 9.232 102.093 10.896V18H98.4688V11.064C98.4688 10.264 98.3168 9.68 98.0128 9.312C97.7248 8.944 97.2688 8.76 96.6448 8.76C95.8928 8.76 95.2848 9 94.8208 9.48C94.3728 9.96 94.1488 10.6 94.1488 11.4V18H90.5248V6.216H94.0528V7.896C94.4688 7.256 95.0048 6.768 95.6608 6.432C96.3328 6.096 97.0848 5.928 97.9168 5.928ZM118.029 15.528C118.397 15.528 118.781 15.504 119.181 15.456L118.989 18.096C118.525 18.16 118.061 18.192 117.597 18.192C115.805 18.192 114.493 17.8 113.661 17.016C112.845 16.232 112.437 15.04 112.437 13.44V8.928H110.205V6.216H112.437V2.76H116.061V6.216H119.013V8.928H116.061V13.416C116.061 14.824 116.717 15.528 118.029 15.528ZM128.175 5.928C129.583 5.928 130.631 6.344 131.319 7.176C132.007 7.992 132.351 9.232 132.351 10.896V18H128.727V11.064C128.727 10.264 128.575 9.68 128.271 9.312C127.983 8.944 127.527 8.76 126.903 8.76C126.151 8.76 125.543 9 125.079 9.48C124.631 9.96 124.407 10.6 124.407 11.4V18H120.783V1.08H124.407V7.776C124.823 7.168 125.351 6.712 125.991 6.408C126.647 6.088 127.375 5.928 128.175 5.928ZM145.664 12.792H137.984C138.096 13.736 138.4 14.424 138.896 14.856C139.408 15.272 140.128 15.48 141.056 15.48C141.664 15.48 142.264 15.384 142.856 15.192C143.464 14.984 144.016 14.696 144.512 14.328L145.472 16.752C144.896 17.2 144.192 17.552 143.36 17.808C142.544 18.064 141.72 18.192 140.888 18.192C138.904 18.192 137.336 17.648 136.184 16.56C135.048 15.456 134.48 13.96 134.48 12.072C134.48 10.872 134.728 9.808 135.224 8.88C135.72 7.952 136.408 7.232 137.288 6.72C138.168 6.192 139.168 5.928 140.288 5.928C141.936 5.928 143.24 6.464 144.2 7.536C145.176 8.608 145.664 10.064 145.664 11.904V12.792ZM140.384 8.424C139.696 8.424 139.144 8.648 138.728 9.096C138.328 9.528 138.08 10.16 137.984 10.992H142.616C142.568 10.144 142.352 9.504 141.968 9.072C141.6 8.64 141.072 8.424 140.384 8.424ZM170.396 6.216H173.924L169.148 18H166.076L163.484 11.352L160.964 18H157.916L153.116 6.216H156.812L159.596 13.68L162.38 6.216H164.828L167.636 13.752L170.396 6.216ZM180.704 18.192C179.456 18.192 178.36 17.944 177.416 17.448C176.472 16.936 175.744 16.224 175.232 15.312C174.72 14.384 174.464 13.296 174.464 12.048C174.464 10.8 174.72 9.72 175.232 8.808C175.744 7.88 176.472 7.168 177.416 6.672C178.36 6.176 179.456 5.928 180.704 5.928C181.952 5.928 183.048 6.176 183.992 6.672C184.936 7.168 185.664 7.88 186.176 8.808C186.688 9.72 186.944 10.8 186.944 12.048C186.944 13.296 186.688 14.384 186.176 15.312C185.664 16.224 184.936 16.936 183.992 17.448C183.048 17.944 181.952 18.192 180.704 18.192ZM180.704 15.432C182.464 15.432 183.344 14.304 183.344 12.048C183.344 10.912 183.112 10.064 182.648 9.504C182.2 8.944 181.552 8.664 180.704 8.664C178.944 8.664 178.064 9.792 178.064 12.048C178.064 14.304 178.944 15.432 180.704 15.432ZM197.574 8.904L195.534 9.12C194.526 9.216 193.814 9.504 193.398 9.984C192.982 10.448 192.774 11.072 192.774 11.856V18H189.15V6.216H192.63V8.208C193.222 6.848 194.446 6.104 196.302 5.976L197.358 5.904L197.574 8.904ZM198.783 18V1.08H202.407V18H198.783ZM217.109 1.08V18H213.509V16.248C213.157 16.856 212.653 17.336 211.997 17.688C211.357 18.024 210.629 18.192 209.813 18.192C208.805 18.192 207.901 17.936 207.101 17.424C206.317 16.896 205.701 16.168 205.253 15.24C204.821 14.296 204.605 13.216 204.605 12C204.605 10.784 204.821 9.72 205.253 8.808C205.701 7.88 206.317 7.168 207.101 6.672C207.885 6.176 208.789 5.928 209.813 5.928C210.613 5.928 211.333 6.096 211.973 6.432C212.629 6.768 213.133 7.24 213.485 7.848V1.08H217.109ZM210.869 15.432C211.717 15.432 212.365 15.144 212.813 14.568C213.277 13.976 213.509 13.136 213.509 12.048C213.509 10.96 213.277 10.128 212.813 9.552C212.365 8.976 211.717 8.688 210.869 8.688C210.021 8.688 209.365 8.976 208.901 9.552C208.437 10.112 208.205 10.928 208.205 12C208.205 13.088 208.437 13.936 208.901 14.544C209.365 15.136 210.021 15.432 210.869 15.432ZM222.876 11.448C222.876 10.616 223.028 9.928 223.332 9.384C223.636 8.824 224.06 8.232 224.604 7.608C225.02 7.128 225.324 6.72 225.516 6.384C225.724 6.048 225.828 5.68 225.828 5.28C225.828 4.8 225.668 4.432 225.348 4.176C225.028 3.92 224.572 3.792 223.98 3.792C223.34 3.792 222.644 3.936 221.892 4.224C221.14 4.512 220.404 4.912 219.684 5.424L218.484 2.76C219.14 2.184 219.996 1.728 221.052 1.392C222.124 1.04 223.196 0.863999 224.268 0.863999C225.292 0.863999 226.196 1.04 226.98 1.392C227.78 1.728 228.396 2.208 228.828 2.832C229.276 3.44 229.5 4.136 229.5 4.92C229.5 5.512 229.388 6.056 229.164 6.552C228.94 7.032 228.668 7.456 228.348 7.824C228.044 8.176 227.62 8.608 227.076 9.12C226.468 9.696 226.012 10.184 225.708 10.584C225.404 10.968 225.212 11.392 225.132 11.856L224.988 12.648H222.876V11.448ZM222.06 18V14.16H225.924V18H222.06Z" fill="white"/>
</svg>
